<?xml version="1.0" encoding="utf-8"?>
<!-- Generator: Adobe Illustrator 22.0.1, SVG Export Plug-In . SVG Version: 6.00 Build 0)  -->
<svg version="1.1" id="Layer_1" xmlns="http://www.w3.org/2000/svg" xmlns:xlink="http://www.w3.org/1999/xlink" x="0px" y="0px"
	 viewBox="0 0 123.3 68" style="enable-background:new 0 0 123.3 68;" xml:space="preserve">
<style type="text/css">
	.st0{fill:#FFFFFF;}
</style>
<g>
	<g>
		<path class="st0" d="M87,47.5c-0.2-0.4-0.4-0.9-0.6-1.3c-0.1,0-1.5-2.8-4.9-3.6c-1.3-0.3-1.6-0.3-2.5-0.3c-1.2,0-2.3,0.2-3.4,0.6
			c-0.5,0.2-0.9,0.4-1.3,0.6c-1.1-0.7-2.5-1.2-3.7-1.2c-0.5,0-1,0.1-1.5,0.2c-0.2,0-0.3,0-0.5,0h-3.2c-0.8,0-1.5,0.3-2,0.8
			c0,0,0,0.1-0.1,0.1c-1.1-0.7-2.5-1.1-4.1-1.1c-0.7,0-1.4,0.1-2.1,0.3c-0.3-0.1-0.5-0.1-0.8-0.1h-2.4v-0.7c0-0.6-0.1-1.2-0.1-1.7
			c-0.1-1.3-1.2-2.4-2.5-2.6L47.9,37c-0.1,0-0.2,0-0.3,0c-0.5,0-0.9,0.1-1.3,0.3c-0.7-0.4-1.5-0.6-2.3-0.6c-2.5,0-4.6,2.1-4.6,4.6
			c0,0.6,0.1,1.1,0.3,1.6c-1.1-0.5-2.3-0.7-3.7-0.7c-1.7,0-3.3,0.4-4.8,1.1c-0.1-0.1-0.3-0.1-0.4-0.2l-2.9-1C27.6,42,27.3,42,27,42
			c-1.1,0-2.2,0.7-2.6,1.8l-0.1,0.3L24,43.9c-0.4-1.1-1.5-1.8-2.7-1.8c-0.3,0-0.6,0-0.9,0.1l-3,0.9c-0.1,0-0.2,0.1-0.3,0.1
			c-1.2-0.7-2.6-1-4.3-1c-2.3,0-4.6,0.7-6.6,2.1c-1.3,0.9-1.6,2.6-0.8,3.9l0.3,0.5c0,0.1-0.1,0.1-0.1,0.2c-0.9,1.1-1.3,2.4-1.3,3.9
			c0,2,0.9,3.7,2.4,5c1.3,1,3,1.6,4.7,1.6c1.1,0,2.2-0.2,3.1-0.5c0.5,0.2,1,0.2,1.5,0.2h1.5c0.8,0,1.5-0.3,2-0.8
			c0.2-0.2,0.4-0.5,0.5-0.7c0.5,0.9,1.5,1.6,2.5,1.6h1.1c1.9,0,3.7-1.3,4.6-2.8c0.4,0.6,0.9,1.1,1.4,1.5c1.3,1,3,1.6,4.7,1.6
			c1.1,0,2.2-0.2,3.1-0.5c0.5,0.2,1,0.2,1.5,0.2h1.5c0.3,0,0.6,0,0.9-0.1c0.4-0.1,0.7-0.1,1-0.1h1.5c0.9,0,1.8-0.3,2.5-0.8
			c0,0,0,0.1,0.1,0.1c0.6,0.7,1.4,1.2,2.3,1.2c0.3,0,0.6-0.1,0.9-0.2l0.5-0.2v1.6c0,1.6,1.3,2.9,2.9,2.9h1.4c1.4,0,2.7-0.6,3.5-1.7
			c0.5-0.6,0.8-1.4,1-2.2c1.6,0,3.1-0.5,4.4-1.5c0.5,0.5,1.2,0.8,2,0.8h1.5c2.3,0,4.2-1.8,4.6-4.1c0.4,0.8,0.9,1.5,1.5,2.1
			c1.6,1.5,3.8,2.4,6.2,2.4c2.4,0,4.6-0.9,6.1-2.4c1.6-1.6,2.4-3.7,2.4-6.1C87.6,49.7,87.4,48.6,87,47.5z M17.5,56.2h-1.4
			c-0.5,0-1.1-0.2-1.4-0.7c-0.9,0.7-2.1,1-3.2,1c-2.2,0-4.3-1.3-4.3-3.7c0-3.6,4.4-4,7.1-4c0-1-0.8-1-1.6-1c-1.1,0-2.6,0.5-3.5,0.9
			l-1.3-2c1.5-1,3.2-1.6,5-1.6c2.5,0,4.6,0.9,4.6,3.8V56.2z M26.2,54.3c-0.4,0.9-1.4,1.8-2.4,1.8h-1.1l-4.3-10.3l3-0.9l2.7,6.8
			l2.8-6.8l2.9,1L26.2,54.3z M40.5,56.2h-1.4c-0.5,0-1.1-0.2-1.4-0.7c-0.9,0.7-2.1,1-3.2,1c-2.1,0-4.3-1.3-4.3-3.7
			c0-3.6,4.4-4,7.1-4c0-1-0.8-1-1.6-1c-1.1,0-2.6,0.5-3.5,0.9l-1.3-2c1.5-1,3.2-1.6,5-1.6c2.5,0,4.6,0.9,4.6,3.8V56.2z M45.5,54.1
			c0,1-0.7,2.1-1.7,2.1h-1.5V45.1l3.2-0.5V54.1z M43.9,43.1c-1,0-1.7-0.8-1.7-1.7c0-1,0.8-1.7,1.7-1.7c1,0,1.7,0.8,1.7,1.7
			C45.7,42.3,44.9,43.1,43.9,43.1z M48.7,56.6c-0.7-1-1-2-1-3.3V41.7c0-0.6,0-1.2-0.1-1.8l3.2,0.4c0,0.5,0.1,1,0.1,1.4v11.5
			c0,0.8,0.2,1.8,0.6,2.5L48.7,56.6z M63.5,51.9c0,2.7-1.9,4.9-4.7,4.9c-1,0-1.9-0.2-2.7-0.8v2.7c0,1-0.7,2-1.8,2h-1.4V45.3h3.2V46
			c0.9-0.5,1.9-0.9,2.9-0.9c2.8,0,4.5,1.7,4.5,4.5V51.9z M71.6,48.3c-0.4-0.2-1-0.5-1.4-0.5c-1.3,0-1.7,0.9-1.7,2.1v4.3
			c0,1-0.6,2-1.7,2h-1.5V45.3h3.2v0.5c0.6-0.4,1.3-0.6,2-0.6c0.8,0,1.8,0.4,2.4,0.9L71.6,48.3z M79,56.5c-3.4,0-5.7-2.3-5.7-5.7
			c0-3.5,2.2-5.7,5.7-5.7s5.7,2.2,5.7,5.7C84.7,54.2,82.4,56.5,79,56.5z"/>
		<path class="st0" d="M33.4,52.7c0,0.9,0.5,1.2,1.3,1.2c1.8,0,2.6-1,2.6-2.7C36.3,51.2,33.4,51.2,33.4,52.7z"/>
		<path class="st0" d="M10.4,52.7c0,0.9,0.5,1.2,1.3,1.2c1.8,0,2.6-1,2.6-2.7C13.3,51.2,10.4,51.2,10.4,52.7z"/>
		<path class="st0" d="M58.8,47.8c-1,0-1.9,0.4-2.6,1V53c0.6,0.7,1.4,1.2,2.4,1.2c1.3,0,1.8-1.2,1.8-2.4v-1.3h-0.1
			C60.3,49.3,60.4,47.8,58.8,47.8z"/>
		<path class="st0" d="M79,47.6c-2,0-2.5,1.3-2.5,3.1c0,1.6,0.5,3.3,2.5,3.3c1.9,0,2.4-1.6,2.4-3.3S81,47.6,79,47.6z"/>
	</g>
	<g>
		<g>
			<path class="st0" d="M93.8,54.4c0.6,0.9,0.5,1.9-0.4,2.6c-0.9,0.6-2.1,0.5-2.7-0.3c-0.6-0.9-0.4-2.1,0.4-2.8
				C92,53.2,93.2,53.6,93.8,54.4z"/>
		</g>
		<path class="st0" d="M98.5,42.2c0.5,0.7,0.6,1.5,0,2c-0.7,0.5-1.8,0.5-2.3-0.1c-0.5-0.7-0.5-2.1,0.2-2.6
			C96.9,41,97.9,41.5,98.5,42.2z M88.4,9.1c-1.9,1.5-2.2,4.8-0.7,6.7s4.3,1.7,6.1,0.2c1.9-1.5,2.9-4.3,1.4-6.2
			C93.8,7.9,90.3,7.6,88.4,9.1z M80.4,30.1C79.3,31,79.2,33,80,34c0.9,1.1,2.6,1.1,3.7,0.2c1.1-0.9,1.1-2.3,0.2-3.3
			C83.1,29.9,81.4,29.2,80.4,30.1z M117.2,36c-2.6,2.1-6.6,2-8.6-0.6c-0.4-0.5-0.8-1.5-1-2c-0.7,1.6-1.8,2.7-3.3,3.8
			c-1.4,1.1-2.4,3.1-4.1,3.4c0.2,0.1,0.2,0.1,0.3,0.2c1.4,1.8,0.9,3.8-1,5.2c-1.8,1.5-3.9,1.7-5.4-0.1c-1.3-1.7-1.6-4.5-0.3-6.1
			c-1.8-0.7-3.6-2-4.8-3.6c-0.3-0.4-0.7-1.4-0.9-1.8c-0.4,1-0.5,2.6-1.5,3.4c-1.5,1.2-3.5,0.8-5.3,0.6c-1.7-0.2-3.5-0.6-4.7-2
			c-1.2-1.5-1.6-3.3-1.4-5s1.2-3.2,2.7-4.4c1.5-1.2,3.2-2.6,4.9-2.4c1.5,0.2,2.6,1.2,3.8,2.3c0.4-2.2,1.8-4,3.4-5.7
			c-2.1-0.3-4.8-0.7-6.2-2.5c-1.5-1.9-2.2-4.8-2-7s2.4-4,4.2-5.5c1.9-1.5,4-2.8,6.2-2.6s4.4,1.7,5.9,3.6c1.2,1.5,1.9,3.4,2,5.2
			c0.3-0.5,0.1-1.3,0.6-1.7c2.3-1.9,6.3-1.4,8.2,0.9c1.9,2.3,0.9,5.7-1.4,7.5c-0.9,0.7-1.4,1.6-2.4,1.6c0.5,0.4,1,0.7,1.4,1.2
			c1.2,1.6,2.4,3.3,2.6,5.2c0.3-0.3,0.5,0.2,0.9-0.1c2.6-2.1,5.7-2.1,7.8,0.5C120.1,30.4,119.8,33.9,117.2,36z M85.3,29.9
			c-1.5-1.9-4.2-2.7-6.1-1.2s-2.1,4.6-0.6,6.5c1.5,1.9,4.2,2,6.1,0.5C86.7,34.1,86.8,31.7,85.3,29.9z M99.4,41.5
			c-1-1.2-2.7-1.9-3.9-0.9c-1.2,1-1.3,3-0.3,4.3c1,1.2,2.7,1.3,3.9,0.3C100.4,44.1,100.4,42.7,99.4,41.5z M96.1,9.2
			c-2.2-2.7-5.5-3-8.2-0.8s-3.9,6-1.8,8.7c2.2,2.7,6.4,2.7,9.1,0.5C98,15.5,98.2,11.9,96.1,9.2z M101.1,18.5c-0.5-0.7-1.7-1-1.8-1.8
			c-0.3,0.7-0.6,1-1.1,1.7c0.3,0,0.6,0.4,0.9,0.4C99.5,18.9,100.7,18.4,101.1,18.5z M106.9,18.1c1.5-1.2,1.6-3.1,0.4-4.6
			s-3.3-2.3-4.9-1c-1.5,1.2-1.6,3.7-0.4,5.3C103.1,19.3,105.3,19.3,106.9,18.1z M116.4,29.3c-1.4-1.7-3.7-2.5-5.4-1.1
			c-1.7,1.4-1.9,4.1-0.5,5.8s3.8,1.8,5.5,0.4C117.7,33.1,117.8,31,116.4,29.3z M111.8,29.3c-1.1,0.9-1.2,2.9-0.3,3.9
			c0.9,1.1,2.6,1.1,3.7,0.2c1.1-0.9,1.1-2.3,0.2-3.3C114.5,29,112.9,28.4,111.8,29.3z M106,17c0.9-0.7,0.8-1.8,0.1-2.7
			c-0.7-0.9-2-1.5-2.9-0.8s-0.9,2.4-0.2,3.3C103.7,17.7,105.1,17.7,106,17z M97.3,24.1c-2.9,0.5-4.7,3.2-4.2,6.1s3,4.4,6,3.9
			c2.9-0.5,5.3-2.9,4.8-5.8C103.3,25.4,100.2,23.6,97.3,24.1z"/>
	</g>
</g>
</svg>
